<svg xmlns="http://www.w3.org/2000/svg" version="1.1" xmlns:xlink="http://www.w3.org/1999/xlink" xmlns:svgjs="http://svgjs.dev/svgjs" width="128" height="128" viewBox="0 0 128 128"><g transform="matrix(0.515,0,0,0.515,30.928748874887482,12.333870967741937)"><svg viewBox="0 0 99 155" data-background-color="#bdbfde" preserveAspectRatio="xMidYMid meet" height="200" width="128" xmlns="http://www.w3.org/2000/svg" xmlns:xlink="http://www.w3.org/1999/xlink"><g id="tight-bounds" transform="matrix(1,0,0,1,0.16707920792079278,0.25)"><svg viewBox="0 0 98.66584158415841 154.5" height="154.5" width="98.66584158415841"><g><svg viewBox="0 0 98.66584158415841 154.5" height="154.5" width="98.66584158415841"><g><svg viewBox="0 0 98.66584158415841 154.5" height="154.5" width="98.66584158415841"><g id="textblocktransform"><svg viewBox="0 0 98.66584158415841 154.5" height="154.5" width="98.66584158415841" id="textblock"><g><svg viewBox="0 0 98.66584158415841 154.5" height="154.5" width="98.66584158415841"><g transform="matrix(1,0,0,1,0,0)"><svg width="98.66584158415841" viewBox="2.64 -29.15 18.89 29.59" height="154.5" data-palette-color="#58454b"><path d="M10.99 0.44L10.99 0.44Q8.84 0.44 6.59-0.1 4.35-0.63 2.88-1.46L2.88-1.46 2.64-7.76 4.74-7.96 6.1-3.61Q7.28-2.83 8.72-2.42 10.16-2 11.72-2L11.72-2Q14.11-2 15.58-3.17 17.04-4.35 17.04-6.35L17.04-6.35Q17.04-8.06 16.02-9.2 14.99-10.35 13.35-11.21 11.72-12.06 9.89-12.87 8.06-13.67 6.45-14.72 4.83-15.77 3.78-17.31 2.73-18.85 2.73-21.14L2.73-21.14Q2.73-23.49 4.08-25.32 5.42-27.15 7.76-28.15 10.11-29.15 13.13-29.15L13.13-29.15Q14.4-29.15 15.6-29.03 16.8-28.91 17.82-28.64 18.85-28.37 19.68-28.03L19.68-28.03 20.07-21.92 17.97-21.73 16.6-25.83Q15.04-26.81 12.6-26.81L12.6-26.81Q10.11-26.81 8.62-25.59 7.13-24.37 7.13-22.41L7.13-22.41Q7.13-20.65 8.18-19.46 9.23-18.26 10.86-17.38 12.5-16.5 14.33-15.7 16.16-14.89 17.8-13.87 19.43-12.84 20.48-11.35 21.53-9.86 21.53-7.67L21.53-7.67Q21.53-5.32 20.17-3.49 18.8-1.66 16.43-0.61 14.06 0.44 10.99 0.44Z" opacity="1" transform="matrix(1,0,0,1,0,0)" fill="#58454b" class="wordmark-text-0" data-fill-palette-color="primary" id="text-0"></path></svg></g></svg></g></svg></g></svg></g></svg></g><defs></defs></svg><rect width="98.66584158415841" height="154.5" fill="none" stroke="none" visibility="hidden"></rect></g></svg></g></svg>