<svg xmlns="http://www.w3.org/2000/svg" version="1.1" xmlns:xlink="http://www.w3.org/1999/xlink" xmlns:svgjs="http://svgjs.dev/svgjs" width="150" height="50" viewBox="0 0 2000 378"><g transform="matrix(1,0,0,1,-1.2121212121212466,-0.010353616970121493)"><svg viewBox="0 0 396 75" data-background-color="#bdbfde" preserveAspectRatio="xMidYMid meet" height="378" width="2000" xmlns="http://www.w3.org/2000/svg" xmlns:xlink="http://www.w3.org/1999/xlink"><g id="tight-bounds" transform="matrix(1,0,0,1,0.2400000000000091,0.0020542890813715076)"><svg viewBox="0 0 395.52 74.99589142183724" height="74.99589142183724" width="395.52"><g><svg viewBox="0 0 508.38277465718136 96.39618570217013" height="74.99589142183724" width="395.52"><g transform="matrix(1,0,0,1,0,13.32248297331006)"><svg viewBox="0 0 395.52 69.75121975555001" height="69.75121975555001" width="395.52"><g id="textblocktransform"><svg viewBox="0 0 395.52 69.75121975555001" height="69.75121975555001" width="395.52" id="textblock"><g><svg viewBox="0 0 395.52 69.75121975555001" height="69.75121975555001" width="395.52"><g transform="matrix(1,0,0,1,0,0)"><svg width="395.52" viewBox="2.64 -34.08 195.73000000000002 34.519999999999996" height="69.75121975555001" data-palette-color="#58454b"><path d="M10.99 0.44L10.99 0.44Q8.84 0.44 6.59-0.1 4.35-0.63 2.88-1.46L2.88-1.46 2.64-7.76 4.74-7.96 6.1-3.61Q7.28-2.83 8.72-2.42 10.16-2 11.72-2L11.72-2Q14.11-2 15.58-3.17 17.04-4.35 17.04-6.35L17.04-6.35Q17.04-8.06 16.02-9.2 14.99-10.35 13.35-11.21 11.72-12.06 9.89-12.87 8.06-13.67 6.45-14.72 4.83-15.77 3.78-17.31 2.73-18.85 2.73-21.14L2.73-21.14Q2.73-23.49 4.08-25.32 5.42-27.15 7.76-28.15 10.11-29.15 13.13-29.15L13.13-29.15Q14.4-29.15 15.6-29.03 16.8-28.91 17.82-28.64 18.85-28.37 19.68-28.03L19.68-28.03 20.07-21.92 17.97-21.73 16.6-25.83Q15.04-26.81 12.6-26.81L12.6-26.81Q10.11-26.81 8.62-25.59 7.13-24.37 7.13-22.41L7.13-22.41Q7.13-20.65 8.18-19.46 9.23-18.26 10.86-17.38 12.5-16.5 14.33-15.7 16.16-14.89 17.8-13.87 19.43-12.84 20.48-11.35 21.53-9.86 21.53-7.67L21.53-7.67Q21.53-5.32 20.17-3.49 18.8-1.66 16.43-0.61 14.06 0.44 10.99 0.44ZM39.35-4.25L40.23-3.03Q39.3-1.42 37.69-0.51 36.08 0.39 34.32 0.39L34.32 0.39Q31.39 0.39 29.47-1.42 27.54-3.22 27.54-6.84L27.54-6.84 27.68-18.51 24.27-18.51 24.27-19.53 30.56-25.24 31.49-25.24 31.39-19.63 31.35-7.62Q31.35-5.08 32.44-3.86 33.54-2.64 35.54-2.64L35.54-2.64Q36.67-2.64 37.62-3.1 38.57-3.56 39.35-4.25L39.35-4.25ZM38.77-18.51L29.64-18.51 29.64-20.95 38.77-20.95 38.77-18.51ZM49.26 0.39L49.26 0.39Q47.31 0.39 45.8-0.39 44.28-1.17 43.43-2.39 42.57-3.61 42.57-4.93L42.57-4.93Q42.57-6.54 43.62-7.62 44.67-8.69 47.16-9.52L47.16-9.52 54.58-12.01 54.58-14.5Q54.58-15.72 53.85-16.72 53.12-17.72 51.9-18.31 50.68-18.9 49.16-18.9L49.16-18.9Q47.94-18.9 47.5-18.38 47.07-17.87 46.97-16.36L46.97-16.36 46.87-14.31Q45.11-13.92 43.89-14.43 42.67-14.94 42.67-16.11L42.67-16.11Q42.67-16.94 43.4-17.77 44.14-18.6 45.31-19.36 46.48-20.12 47.82-20.65 49.16-21.19 50.48-21.39L50.48-21.39Q54.05-21.39 56.25-19.51 58.44-17.63 58.49-14.5L58.49-14.5 58.39-6.3Q58.39-5.42 58.47-4.52 58.54-3.61 58.69-3.17L58.69-3.17 61.81-2.59 61.81-1.07 59.42-0.2Q58.74 0.1 58.15 0.24 57.56 0.39 57.17 0.39L57.17 0.39Q55.66 0.39 55.22-1.32L55.22-1.32 54.68-3.22 55.41-3.22Q53.8-1.42 52.31-0.51 50.83 0.39 49.26 0.39ZM50.58-2.49L50.58-2.49Q51.7-2.49 52.7-3 53.71-3.52 54.58-4.59L54.58-4.59 54.58-9.72 49.12-8.25Q47.94-7.96 47.43-7.32 46.92-6.69 46.92-5.71L46.92-5.71Q46.92-4.49 48.02-3.49 49.12-2.49 50.58-2.49ZM75.43-1.86L75.33 0 64.54 0 64.4-1.76 67.42-2.49Q67.47-2.98 67.5-3.54 67.52-4.1 67.52-4.91 67.52-5.71 67.52-6.86 67.52-8.01 67.52-9.67L67.52-9.67 67.47-18.46 67.47-24.02Q67.47-27.15 68.45-29.39 69.43-31.64 71.18-32.86 72.94-34.08 75.29-34.08L75.29-34.08Q77.24-34.08 78.58-33.2 79.92-32.32 79.92-31.05L79.92-31.05Q79.92-30.37 79.48-29.96 79.05-29.54 78.31-29.54L78.31-29.54Q77.09-29.54 76.02-30.62L76.02-30.62 73.77-32.76 74.94-32.47Q73.14-32.47 72.16-30.62 71.18-28.76 71.18-25.39L71.18-25.39 71.18-20.9 71.23-18.46 71.28-10.06Q71.28-7.91 71.33-5.79 71.38-3.66 71.43-2.49L71.43-2.49 75.43-1.86ZM76.6-18.46L63.96-18.46 63.96-20.07 67.47-20.9 71.09-20.9 76.6-20.9 76.6-18.46ZM90.22-1.86L90.13 0 79.34 0 79.19-1.76 82.22-2.49Q82.27-2.98 82.29-3.54 82.31-4.1 82.31-4.91 82.31-5.71 82.31-6.86 82.31-8.01 82.31-9.67L82.31-9.67 82.27-18.46 82.27-24.02Q82.27-27.15 83.24-29.39 84.22-31.64 85.98-32.86 87.73-34.08 90.08-34.08L90.08-34.08Q92.03-34.08 93.37-33.2 94.72-32.32 94.72-31.05L94.72-31.05Q94.72-30.37 94.28-29.96 93.84-29.54 93.11-29.54L93.11-29.54Q91.88-29.54 90.81-30.62L90.81-30.62 88.56-32.76 89.74-32.47Q87.93-32.47 86.95-30.62 85.98-28.76 85.98-25.39L85.98-25.39 85.98-20.9 86.03-18.46 86.07-10.06Q86.07-7.91 86.12-5.79 86.17-3.66 86.22-2.49L86.22-2.49 90.22-1.86ZM91.4-18.46L78.75-18.46 78.75-20.07 82.27-20.9 85.88-20.9 91.4-20.9 91.4-18.46ZM117.96-6.98L117.08-6.98 117.08-17.92Q117.08-20.8 117.05-22.53 117.03-24.27 116.96-25.12 116.88-25.98 116.83-26.12L116.83-26.12 113.51-26.81 113.66-28.66 122.94-28.66 123.08-26.81 120.06-26.12Q120.06-25.98 119.98-25.12 119.91-24.27 119.86-22.51 119.81-20.75 119.81-17.92L119.81-17.92 119.81-6.3Q119.81-4.74 119.81-3.13 119.81-1.51 119.86 0.2L119.86 0.2 117.66 0.2 99.69-23.97 100.77-23.97 100.77-10.89Q100.77-7.96 100.82-6.2 100.87-4.44 100.94-3.59 101.01-2.73 101.06-2.54L101.06-2.54 104.38-1.86 104.24 0 94.86 0 94.71-1.86 97.69-2.54Q97.79-2.73 97.84-3.56 97.89-4.39 97.94-6.18 97.99-7.96 97.99-10.89L97.99-10.89 97.99-19.24Q97.99-21.44 97.94-22.85 97.89-24.27 97.84-25.05 97.79-25.83 97.69-26.12L97.69-26.12 94.71-26.81 94.86-28.66 101.55-28.66 117.96-6.98ZM137.53 0.39L137.53 0.39Q134.36 0.39 131.99-0.98 129.62-2.34 128.31-4.81 126.99-7.28 126.99-10.45L126.99-10.45Q126.99-13.77 128.43-16.21 129.87-18.65 132.33-20.02 134.8-21.39 137.73-21.39L137.73-21.39Q140.76-21.39 143-20.04 145.25-18.7 146.52-16.28 147.79-13.87 147.79-10.64L147.79-10.64Q147.79-7.57 146.42-5.05 145.05-2.54 142.73-1.07 140.41 0.39 137.53 0.39ZM138.02-1.9L138.02-1.9Q139.68-1.9 140.9-2.91 142.12-3.91 142.81-5.69 143.49-7.47 143.49-9.77L143.49-9.77Q143.49-13.96 141.76-16.58 140.02-19.19 137.19-19.19L137.19-19.19Q134.56-19.19 132.97-17.02 131.38-14.84 131.38-11.18L131.38-11.18Q131.38-8.45 132.24-6.35 133.09-4.25 134.6-3.08 136.12-1.9 138.02-1.9ZM162.34 0.39L162.34 0.39Q159.16 0.39 156.79-0.98 154.43-2.34 153.11-4.81 151.79-7.28 151.79-10.45L151.79-10.45Q151.79-13.77 153.23-16.21 154.67-18.65 157.14-20.02 159.6-21.39 162.53-21.39L162.53-21.39Q165.56-21.39 167.8-20.04 170.05-18.7 171.32-16.28 172.59-13.87 172.59-10.64L172.59-10.64Q172.59-7.57 171.22-5.05 169.86-2.54 167.54-1.07 165.22 0.39 162.34 0.39ZM162.82-1.9L162.82-1.9Q164.48-1.9 165.71-2.91 166.93-3.91 167.61-5.69 168.29-7.47 168.29-9.77L168.29-9.77Q168.29-13.96 166.56-16.58 164.83-19.19 161.99-19.19L161.99-19.19Q159.36-19.19 157.77-17.02 156.18-14.84 156.18-11.18L156.18-11.18Q156.18-8.45 157.04-6.35 157.89-4.25 159.41-3.08 160.92-1.9 162.82-1.9ZM186.06 0L176.35 0 176.25-1.76 179.03-2.49Q179.08-2.93 179.13-4.05 179.18-5.18 179.23-6.86 179.28-8.54 179.28-10.64L179.28-10.64 179.28-17.72Q179.28-19.53 179.25-21.48 179.23-23.44 179.2-25.2 179.18-26.95 179.13-28.2 179.08-29.44 179.08-29.83L179.08-29.83 175.47-30.32 175.37-31.88 182.26-33.89 183.23-33.2Q183.13-31.59 183.11-29.98 183.09-28.37 183.04-26.68 182.99-25 182.99-23.12 182.99-21.24 182.99-19.04L182.99-19.04 182.94-7.08Q182.94-5.81 182.99-4.86 183.04-3.91 183.09-3.32 183.13-2.73 183.13-2.49L183.13-2.49 186.16-1.76 186.06 0ZM198.37-1.81L198.22 0 192.66 0Q191.78-1.17 191.26-1.76 190.75-2.34 190.26-2.88L190.26-2.88 183.57-10.16 182.21-10.16 182.26-11.33 184.11-11.87 190.9-18.6 187.68-19.19 187.77-21 197.59-21 197.69-19.19 194.46-18.6 185.72-10.74 186.45-12.5 193.34-5.08Q193.93-4.39 194.76-3.59 195.59-2.78 196.17-2.25L196.17-2.25 198.37-1.81Z" opacity="1" transform="matrix(1,0,0,1,0,0)" fill="#58454b" class="wordmark-text-0" data-fill-palette-color="primary" id="text-0"></path></svg></g></svg></g></svg></g></svg></g><g transform="matrix(1,0,0,1,411.9865889550112,0)"><svg viewBox="0 0 96.39618570217013 96.39618570217013" height="96.39618570217013" width="96.39618570217013"><g data-palette-color="#8b7685"><rect width="26.34829075859317" height="96.39618570217013" fill="#8b7685" stroke="transparent" data-fill-palette-color="accent" x="0" fill-opacity="1"></rect><rect width="26.34829075859317" height="96.39618570217013" fill="#8b7685" stroke="transparent" data-fill-palette-color="accent" x="32.13206190072338" fill-opacity="0.75"></rect><rect width="26.34829075859317" height="96.39618570217013" fill="#8b7685" stroke="transparent" data-fill-palette-color="accent" x="64.26412380144676" fill-opacity="0.5"></rect></g></svg></g></svg></g><defs></defs></svg><rect width="395.52" height="74.99589142183724" fill="none" stroke="none" visibility="hidden"></rect></g></svg></g></svg>